<svg xmlns="http://www.w3.org/2000/svg" viewBox="0 0 256 256" role="img" aria-labelledby="title desc">
  <title id="title">Tilawah Together Logo</title>
  <desc id="desc">A crescent moon around an open book with a star.</desc>
  <defs>
    <linearGradient id="moonGrad" x1="0" y1="0" x2="1" y2="1">
      <stop offset="0%" stop-color="#e8c68d" />
      <stop offset="100%" stop-color="#c8853a" />
    </linearGradient>
    <linearGradient id="bookGrad" x1="0" y1="0" x2="0" y2="1">
      <stop offset="0%" stop-color="#7ab5a0" />
      <stop offset="100%" stop-color="#4a7c6a" />
    </linearGradient>
  </defs>

  <circle cx="128" cy="128" r="116" fill="#131634" />

  <path
    d="M 176 48
       A 84 84 0 1 0 176 208
       A 64 64 0 1 1 176 48 Z"
    fill="url(#moonGrad)"
  />

  <path d="M78 150 Q104 136 128 142 Q152 136 178 150 L178 188 Q152 172 128 176 Q104 172 78 188 Z" fill="url(#bookGrad)"/>
  <line x1="128" y1="142" x2="128" y2="184" stroke="#dff1ea" stroke-width="3" stroke-linecap="round"/>

  <path d="M128 73 l6 12 13 2 -9 9 2 13 -12 -6 -12 6 2 -13 -9 -9 13 -2 z" fill="#f4d8a6"/>
</svg>
